solid dualshock3_pressure_pad_22x5x2mm_rounded
  facet normal 0.000000e+00 0.000000e+00 1.000000e+00
    outer loop
      vertex 0.000000e+00 0.000000e+00 2.000000e+00
      vertex 1.100000e+01 1.900000e+00 2.000000e+00
      vertex 1.098847e+01 2.017054e+00 2.000000e+00
    endloop
  endfacet
  facet normal 0.000000e+00 0.000000e+00 1.000000e+00
    outer loop
      vertex 0.000000e+00 0.000000e+00 2.000000e+00
      vertex 1.098847e+01 2.017054e+00 2.000000e+00
      vertex 1.095433e+01 2.129610e+00 2.000000e+00
    endloop
  endfacet
  facet normal 0.000000e+00 0.000000e+00 1.000000e+00
    outer loop
      vertex 0.000000e+00 0.000000e+00 2.000000e+00
      vertex 1.095433e+01 2.129610e+00 2.000000e+00
      vertex 1.089888e+01 2.233342e+00 2.000000e+00
    endloop
  endfacet
  facet normal 0.000000e+00 0.000000e+00 1.000000e+00
    outer loop
      vertex 0.000000e+00 0.000000e+00 2.000000e+00
      vertex 1.089888e+01 2.233342e+00 2.000000e+00
      vertex 1.082426e+01 2.324264e+00 2.000000e+00
    endloop
  endfacet
  facet normal 0.000000e+00 0.000000e+00 1.000000e+00
    outer loop
      vertex 0.000000e+00 0.000000e+00 2.000000e+00
      vertex 1.082426e+01 2.324264e+00 2.000000e+00
      vertex 1.073334e+01 2.398882e+00 2.000000e+00
    endloop
  endfacet
  facet normal 0.000000e+00 0.000000e+00 1.000000e+00
    outer loop
      vertex 0.000000e+00 0.000000e+00 2.000000e+00
      vertex 1.073334e+01 2.398882e+00 2.000000e+00
      vertex 1.062961e+01 2.454328e+00 2.000000e+00
    endloop
  endfacet
  facet normal 0.000000e+00 0.000000e+00 1.000000e+00
    outer loop
      vertex 0.000000e+00 0.000000e+00 2.000000e+00
      vertex 1.062961e+01 2.454328e+00 2.000000e+00
      vertex 1.051705e+01 2.488471e+00 2.000000e+00
    endloop
  endfacet
  facet normal 0.000000e+00 0.000000e+00 1.000000e+00
    outer loop
      vertex 0.000000e+00 0.000000e+00 2.000000e+00
      vertex 1.051705e+01 2.488471e+00 2.000000e+00
      vertex 1.040000e+01 2.500000e+00 2.000000e+00
    endloop
  endfacet
  facet normal 0.000000e+00 -0.000000e+00 1.000000e+00
    outer loop
      vertex 0.000000e+00 0.000000e+00 2.000000e+00
      vertex 1.040000e+01 2.500000e+00 2.000000e+00
      vertex -1.040000e+01 2.500000e+00 2.000000e+00
    endloop
  endfacet
  facet normal 0.000000e+00 0.000000e+00 1.000000e+00
    outer loop
      vertex 0.000000e+00 0.000000e+00 2.000000e+00
      vertex -1.040000e+01 2.500000e+00 2.000000e+00
      vertex -1.051705e+01 2.488471e+00 2.000000e+00
    endloop
  endfacet
  facet normal 0.000000e+00 0.000000e+00 1.000000e+00
    outer loop
      vertex 0.000000e+00 0.000000e+00 2.000000e+00
      vertex -1.051705e+01 2.488471e+00 2.000000e+00
      vertex -1.062961e+01 2.454328e+00 2.000000e+00
    endloop
  endfacet
  facet normal 0.000000e+00 0.000000e+00 1.000000e+00
    outer loop
      vertex 0.000000e+00 0.000000e+00 2.000000e+00
      vertex -1.062961e+01 2.454328e+00 2.000000e+00
      vertex -1.073334e+01 2.398882e+00 2.000000e+00
    endloop
  endfacet
  facet normal 0.000000e+00 0.000000e+00 1.000000e+00
    outer loop
      vertex 0.000000e+00 0.000000e+00 2.000000e+00
      vertex -1.073334e+01 2.398882e+00 2.000000e+00
      vertex -1.082426e+01 2.324264e+00 2.000000e+00
    endloop
  endfacet
  facet normal 0.000000e+00 0.000000e+00 1.000000e+00
    outer loop
      vertex 0.000000e+00 0.000000e+00 2.000000e+00
      vertex -1.082426e+01 2.324264e+00 2.000000e+00
      vertex -1.089888e+01 2.233342e+00 2.000000e+00
    endloop
  endfacet
  facet normal 0.000000e+00 0.000000e+00 1.000000e+00
    outer loop
      vertex 0.000000e+00 0.000000e+00 2.000000e+00
      vertex -1.089888e+01 2.233342e+00 2.000000e+00
      vertex -1.095433e+01 2.129610e+00 2.000000e+00
    endloop
  endfacet
  facet normal 0.000000e+00 0.000000e+00 1.000000e+00
    outer loop
      vertex 0.000000e+00 0.000000e+00 2.000000e+00
      vertex -1.095433e+01 2.129610e+00 2.000000e+00
      vertex -1.098847e+01 2.017054e+00 2.000000e+00
    endloop
  endfacet
  facet normal 0.000000e+00 0.000000e+00 1.000000e+00
    outer loop
      vertex 0.000000e+00 0.000000e+00 2.000000e+00
      vertex -1.098847e+01 2.017054e+00 2.000000e+00
      vertex -1.100000e+01 1.900000e+00 2.000000e+00
    endloop
  endfacet
  facet normal 0.000000e+00 0.000000e+00 1.000000e+00
    outer loop
      vertex 0.000000e+00 0.000000e+00 2.000000e+00
      vertex -1.100000e+01 1.900000e+00 2.000000e+00
      vertex -1.100000e+01 -1.900000e+00 2.000000e+00
    endloop
  endfacet
  facet normal 0.000000e+00 0.000000e+00 1.000000e+00
    outer loop
      vertex 0.000000e+00 0.000000e+00 2.000000e+00
      vertex -1.100000e+01 -1.900000e+00 2.000000e+00
      vertex -1.098847e+01 -2.017054e+00 2.000000e+00
    endloop
  endfacet
  facet normal 0.000000e+00 0.000000e+00 1.000000e+00
    outer loop
      vertex 0.000000e+00 0.000000e+00 2.000000e+00
      vertex -1.098847e+01 -2.017054e+00 2.000000e+00
      vertex -1.095433e+01 -2.129610e+00 2.000000e+00
    endloop
  endfacet
  facet normal 0.000000e+00 0.000000e+00 1.000000e+00
    outer loop
      vertex 0.000000e+00 0.000000e+00 2.000000e+00
      vertex -1.095433e+01 -2.129610e+00 2.000000e+00
      vertex -1.089888e+01 -2.233342e+00 2.000000e+00
    endloop
  endfacet
  facet normal 0.000000e+00 0.000000e+00 1.000000e+00
    outer loop
      vertex 0.000000e+00 0.000000e+00 2.000000e+00
      vertex -1.089888e+01 -2.233342e+00 2.000000e+00
      vertex -1.082426e+01 -2.324264e+00 2.000000e+00
    endloop
  endfacet
  facet normal 0.000000e+00 0.000000e+00 1.000000e+00
    outer loop
      vertex 0.000000e+00 0.000000e+00 2.000000e+00
      vertex -1.082426e+01 -2.324264e+00 2.000000e+00
      vertex -1.073334e+01 -2.398882e+00 2.000000e+00
    endloop
  endfacet
  facet normal 0.000000e+00 0.000000e+00 1.000000e+00
    outer loop
      vertex 0.000000e+00 0.000000e+00 2.000000e+00
      vertex -1.073334e+01 -2.398882e+00 2.000000e+00
      vertex -1.062961e+01 -2.454328e+00 2.000000e+00
    endloop
  endfacet
  facet normal 0.000000e+00 0.000000e+00 1.000000e+00
    outer loop
      vertex 0.000000e+00 0.000000e+00 2.000000e+00
      vertex -1.062961e+01 -2.454328e+00 2.000000e+00
      vertex -1.051705e+01 -2.488471e+00 2.000000e+00
    endloop
  endfacet
  facet normal 0.000000e+00 0.000000e+00 1.000000e+00
    outer loop
      vertex 0.000000e+00 0.000000e+00 2.000000e+00
      vertex -1.051705e+01 -2.488471e+00 2.000000e+00
      vertex -1.040000e+01 -2.500000e+00 2.000000e+00
    endloop
  endfacet
  facet normal 0.000000e+00 0.000000e+00 1.000000e+00
    outer loop
      vertex 0.000000e+00 0.000000e+00 2.000000e+00
      vertex -1.040000e+01 -2.500000e+00 2.000000e+00
      vertex 1.040000e+01 -2.500000e+00 2.000000e+00
    endloop
  endfacet
  facet normal 0.000000e+00 0.000000e+00 1.000000e+00
    outer loop
      vertex 0.000000e+00 0.000000e+00 2.000000e+00
      vertex 1.040000e+01 -2.500000e+00 2.000000e+00
      vertex 1.051705e+01 -2.488471e+00 2.000000e+00
    endloop
  endfacet
  facet normal 0.000000e+00 0.000000e+00 1.000000e+00
    outer loop
      vertex 0.000000e+00 0.000000e+00 2.000000e+00
      vertex 1.051705e+01 -2.488471e+00 2.000000e+00
      vertex 1.062961e+01 -2.454328e+00 2.000000e+00
    endloop
  endfacet
  facet normal 0.000000e+00 0.000000e+00 1.000000e+00
    outer loop
      vertex 0.000000e+00 0.000000e+00 2.000000e+00
      vertex 1.062961e+01 -2.454328e+00 2.000000e+00
      vertex 1.073334e+01 -2.398882e+00 2.000000e+00
    endloop
  endfacet
  facet normal 0.000000e+00 0.000000e+00 1.000000e+00
    outer loop
      vertex 0.000000e+00 0.000000e+00 2.000000e+00
      vertex 1.073334e+01 -2.398882e+00 2.000000e+00
      vertex 1.082426e+01 -2.324264e+00 2.000000e+00
    endloop
  endfacet
  facet normal 0.000000e+00 0.000000e+00 1.000000e+00
    outer loop
      vertex 0.000000e+00 0.000000e+00 2.000000e+00
      vertex 1.082426e+01 -2.324264e+00 2.000000e+00
      vertex 1.089888e+01 -2.233342e+00 2.000000e+00
    endloop
  endfacet
  facet normal 0.000000e+00 0.000000e+00 1.000000e+00
    outer loop
      vertex 0.000000e+00 0.000000e+00 2.000000e+00
      vertex 1.089888e+01 -2.233342e+00 2.000000e+00
      vertex 1.095433e+01 -2.129610e+00 2.000000e+00
    endloop
  endfacet
  facet normal 0.000000e+00 0.000000e+00 1.000000e+00
    outer loop
      vertex 0.000000e+00 0.000000e+00 2.000000e+00
      vertex 1.095433e+01 -2.129610e+00 2.000000e+00
      vertex 1.098847e+01 -2.017054e+00 2.000000e+00
    endloop
  endfacet
  facet normal 0.000000e+00 0.000000e+00 1.000000e+00
    outer loop
      vertex 0.000000e+00 0.000000e+00 2.000000e+00
      vertex 1.098847e+01 -2.017054e+00 2.000000e+00
      vertex 1.100000e+01 -1.900000e+00 2.000000e+00
    endloop
  endfacet
  facet normal -0.000000e+00 0.000000e+00 1.000000e+00
    outer loop
      vertex 0.000000e+00 0.000000e+00 2.000000e+00
      vertex 1.100000e+01 -1.900000e+00 2.000000e+00
      vertex 1.100000e+01 1.900000e+00 2.000000e+00
    endloop
  endfacet
  facet normal 0.000000e+00 0.000000e+00 -1.000000e+00
    outer loop
      vertex 0.000000e+00 0.000000e+00 0.000000e+00
      vertex 1.098847e+01 2.017054e+00 0.000000e+00
      vertex 1.100000e+01 1.900000e+00 0.000000e+00
    endloop
  endfacet
  facet normal 0.000000e+00 0.000000e+00 -1.000000e+00
    outer loop
      vertex 0.000000e+00 0.000000e+00 0.000000e+00
      vertex 1.095433e+01 2.129610e+00 0.000000e+00
      vertex 1.098847e+01 2.017054e+00 0.000000e+00
    endloop
  endfacet
  facet normal 0.000000e+00 0.000000e+00 -1.000000e+00
    outer loop
      vertex 0.000000e+00 0.000000e+00 0.000000e+00
      vertex 1.089888e+01 2.233342e+00 0.000000e+00
      vertex 1.095433e+01 2.129610e+00 0.000000e+00
    endloop
  endfacet
  facet normal 0.000000e+00 0.000000e+00 -1.000000e+00
    outer loop
      vertex 0.000000e+00 0.000000e+00 0.000000e+00
      vertex 1.082426e+01 2.324264e+00 0.000000e+00
      vertex 1.089888e+01 2.233342e+00 0.000000e+00
    endloop
  endfacet
  facet normal 0.000000e+00 0.000000e+00 -1.000000e+00
    outer loop
      vertex 0.000000e+00 0.000000e+00 0.000000e+00
      vertex 1.073334e+01 2.398882e+00 0.000000e+00
      vertex 1.082426e+01 2.324264e+00 0.000000e+00
    endloop
  endfacet
  facet normal 0.000000e+00 0.000000e+00 -1.000000e+00
    outer loop
      vertex 0.000000e+00 0.000000e+00 0.000000e+00
      vertex 1.062961e+01 2.454328e+00 0.000000e+00
      vertex 1.073334e+01 2.398882e+00 0.000000e+00
    endloop
  endfacet
  facet normal 0.000000e+00 0.000000e+00 -1.000000e+00
    outer loop
      vertex 0.000000e+00 0.000000e+00 0.000000e+00
      vertex 1.051705e+01 2.488471e+00 0.000000e+00
      vertex 1.062961e+01 2.454328e+00 0.000000e+00
    endloop
  endfacet
  facet normal 0.000000e+00 0.000000e+00 -1.000000e+00
    outer loop
      vertex 0.000000e+00 0.000000e+00 0.000000e+00
      vertex 1.040000e+01 2.500000e+00 0.000000e+00
      vertex 1.051705e+01 2.488471e+00 0.000000e+00
    endloop
  endfacet
  facet normal 0.000000e+00 0.000000e+00 -1.000000e+00
    outer loop
      vertex 0.000000e+00 0.000000e+00 0.000000e+00
      vertex -1.040000e+01 2.500000e+00 0.000000e+00
      vertex 1.040000e+01 2.500000e+00 0.000000e+00
    endloop
  endfacet
  facet normal 0.000000e+00 0.000000e+00 -1.000000e+00
    outer loop
      vertex 0.000000e+00 0.000000e+00 0.000000e+00
      vertex -1.051705e+01 2.488471e+00 0.000000e+00
      vertex -1.040000e+01 2.500000e+00 0.000000e+00
    endloop
  endfacet
  facet normal 0.000000e+00 0.000000e+00 -1.000000e+00
    outer loop
      vertex 0.000000e+00 0.000000e+00 0.000000e+00
      vertex -1.062961e+01 2.454328e+00 0.000000e+00
      vertex -1.051705e+01 2.488471e+00 0.000000e+00
    endloop
  endfacet
  facet normal 0.000000e+00 0.000000e+00 -1.000000e+00
    outer loop
      vertex 0.000000e+00 0.000000e+00 0.000000e+00
      vertex -1.073334e+01 2.398882e+00 0.000000e+00
      vertex -1.062961e+01 2.454328e+00 0.000000e+00
    endloop
  endfacet
  facet normal 0.000000e+00 0.000000e+00 -1.000000e+00
    outer loop
      vertex 0.000000e+00 0.000000e+00 0.000000e+00
      vertex -1.082426e+01 2.324264e+00 0.000000e+00
      vertex -1.073334e+01 2.398882e+00 0.000000e+00
    endloop
  endfacet
  facet normal 0.000000e+00 0.000000e+00 -1.000000e+00
    outer loop
      vertex 0.000000e+00 0.000000e+00 0.000000e+00
      vertex -1.089888e+01 2.233342e+00 0.000000e+00
      vertex -1.082426e+01 2.324264e+00 0.000000e+00
    endloop
  endfacet
  facet normal 0.000000e+00 0.000000e+00 -1.000000e+00
    outer loop
      vertex 0.000000e+00 0.000000e+00 0.000000e+00
      vertex -1.095433e+01 2.129610e+00 0.000000e+00
      vertex -1.089888e+01 2.233342e+00 0.000000e+00
    endloop
  endfacet
  facet normal 0.000000e+00 0.000000e+00 -1.000000e+00
    outer loop
      vertex 0.000000e+00 0.000000e+00 0.000000e+00
      vertex -1.098847e+01 2.017054e+00 0.000000e+00
      vertex -1.095433e+01 2.129610e+00 0.000000e+00
    endloop
  endfacet
  facet normal 0.000000e+00 0.000000e+00 -1.000000e+00
    outer loop
      vertex 0.000000e+00 0.000000e+00 0.000000e+00
      vertex -1.100000e+01 1.900000e+00 0.000000e+00
      vertex -1.098847e+01 2.017054e+00 0.000000e+00
    endloop
  endfacet
  facet normal -0.000000e+00 0.000000e+00 -1.000000e+00
    outer loop
      vertex 0.000000e+00 0.000000e+00 0.000000e+00
      vertex -1.100000e+01 -1.900000e+00 0.000000e+00
      vertex -1.100000e+01 1.900000e+00 0.000000e+00
    endloop
  endfacet
  facet normal 0.000000e+00 0.000000e+00 -1.000000e+00
    outer loop
      vertex 0.000000e+00 0.000000e+00 0.000000e+00
      vertex -1.098847e+01 -2.017054e+00 0.000000e+00
      vertex -1.100000e+01 -1.900000e+00 0.000000e+00
    endloop
  endfacet
  facet normal 0.000000e+00 0.000000e+00 -1.000000e+00
    outer loop
      vertex 0.000000e+00 0.000000e+00 0.000000e+00
      vertex -1.095433e+01 -2.129610e+00 0.000000e+00
      vertex -1.098847e+01 -2.017054e+00 0.000000e+00
    endloop
  endfacet
  facet normal 0.000000e+00 0.000000e+00 -1.000000e+00
    outer loop
      vertex 0.000000e+00 0.000000e+00 0.000000e+00
      vertex -1.089888e+01 -2.233342e+00 0.000000e+00
      vertex -1.095433e+01 -2.129610e+00 0.000000e+00
    endloop
  endfacet
  facet normal 0.000000e+00 0.000000e+00 -1.000000e+00
    outer loop
      vertex 0.000000e+00 0.000000e+00 0.000000e+00
      vertex -1.082426e+01 -2.324264e+00 0.000000e+00
      vertex -1.089888e+01 -2.233342e+00 0.000000e+00
    endloop
  endfacet
  facet normal 0.000000e+00 0.000000e+00 -1.000000e+00
    outer loop
      vertex 0.000000e+00 0.000000e+00 0.000000e+00
      vertex -1.073334e+01 -2.398882e+00 0.000000e+00
      vertex -1.082426e+01 -2.324264e+00 0.000000e+00
    endloop
  endfacet
  facet normal 0.000000e+00 0.000000e+00 -1.000000e+00
    outer loop
      vertex 0.000000e+00 0.000000e+00 0.000000e+00
      vertex -1.062961e+01 -2.454328e+00 0.000000e+00
      vertex -1.073334e+01 -2.398882e+00 0.000000e+00
    endloop
  endfacet
  facet normal 0.000000e+00 0.000000e+00 -1.000000e+00
    outer loop
      vertex 0.000000e+00 0.000000e+00 0.000000e+00
      vertex -1.051705e+01 -2.488471e+00 0.000000e+00
      vertex -1.062961e+01 -2.454328e+00 0.000000e+00
    endloop
  endfacet
  facet normal 0.000000e+00 0.000000e+00 -1.000000e+00
    outer loop
      vertex 0.000000e+00 0.000000e+00 0.000000e+00
      vertex -1.040000e+01 -2.500000e+00 0.000000e+00
      vertex -1.051705e+01 -2.488471e+00 0.000000e+00
    endloop
  endfacet
  facet normal 0.000000e+00 -0.000000e+00 -1.000000e+00
    outer loop
      vertex 0.000000e+00 0.000000e+00 0.000000e+00
      vertex 1.040000e+01 -2.500000e+00 0.000000e+00
      vertex -1.040000e+01 -2.500000e+00 0.000000e+00
    endloop
  endfacet
  facet normal 0.000000e+00 0.000000e+00 -1.000000e+00
    outer loop
      vertex 0.000000e+00 0.000000e+00 0.000000e+00
      vertex 1.051705e+01 -2.488471e+00 0.000000e+00
      vertex 1.040000e+01 -2.500000e+00 0.000000e+00
    endloop
  endfacet
  facet normal 0.000000e+00 0.000000e+00 -1.000000e+00
    outer loop
      vertex 0.000000e+00 0.000000e+00 0.000000e+00
      vertex 1.062961e+01 -2.454328e+00 0.000000e+00
      vertex 1.051705e+01 -2.488471e+00 0.000000e+00
    endloop
  endfacet
  facet normal 0.000000e+00 0.000000e+00 -1.000000e+00
    outer loop
      vertex 0.000000e+00 0.000000e+00 0.000000e+00
      vertex 1.073334e+01 -2.398882e+00 0.000000e+00
      vertex 1.062961e+01 -2.454328e+00 0.000000e+00
    endloop
  endfacet
  facet normal 0.000000e+00 0.000000e+00 -1.000000e+00
    outer loop
      vertex 0.000000e+00 0.000000e+00 0.000000e+00
      vertex 1.082426e+01 -2.324264e+00 0.000000e+00
      vertex 1.073334e+01 -2.398882e+00 0.000000e+00
    endloop
  endfacet
  facet normal 0.000000e+00 0.000000e+00 -1.000000e+00
    outer loop
      vertex 0.000000e+00 0.000000e+00 0.000000e+00
      vertex 1.089888e+01 -2.233342e+00 0.000000e+00
      vertex 1.082426e+01 -2.324264e+00 0.000000e+00
    endloop
  endfacet
  facet normal 0.000000e+00 0.000000e+00 -1.000000e+00
    outer loop
      vertex 0.000000e+00 0.000000e+00 0.000000e+00
      vertex 1.095433e+01 -2.129610e+00 0.000000e+00
      vertex 1.089888e+01 -2.233342e+00 0.000000e+00
    endloop
  endfacet
  facet normal 0.000000e+00 0.000000e+00 -1.000000e+00
    outer loop
      vertex 0.000000e+00 0.000000e+00 0.000000e+00
      vertex 1.098847e+01 -2.017054e+00 0.000000e+00
      vertex 1.095433e+01 -2.129610e+00 0.000000e+00
    endloop
  endfacet
  facet normal 0.000000e+00 0.000000e+00 -1.000000e+00
    outer loop
      vertex 0.000000e+00 0.000000e+00 0.000000e+00
      vertex 1.100000e+01 -1.900000e+00 0.000000e+00
      vertex 1.098847e+01 -2.017054e+00 0.000000e+00
    endloop
  endfacet
  facet normal 0.000000e+00 0.000000e+00 -1.000000e+00
    outer loop
      vertex 0.000000e+00 0.000000e+00 0.000000e+00
      vertex 1.100000e+01 1.900000e+00 0.000000e+00
      vertex 1.100000e+01 -1.900000e+00 0.000000e+00
    endloop
  endfacet
  facet normal 9.951847e-01 9.801714e-02 0.000000e+00
    outer loop
      vertex 1.100000e+01 1.900000e+00 0.000000e+00
      vertex 1.098847e+01 2.017054e+00 0.000000e+00
      vertex 1.098847e+01 2.017054e+00 2.000000e+00
    endloop
  endfacet
  facet normal 9.951847e-01 9.801714e-02 -0.000000e+00
    outer loop
      vertex 1.100000e+01 1.900000e+00 0.000000e+00
      vertex 1.098847e+01 2.017054e+00 2.000000e+00
      vertex 1.100000e+01 1.900000e+00 2.000000e+00
    endloop
  endfacet
  facet normal 9.569403e-01 2.902847e-01 0.000000e+00
    outer loop
      vertex 1.098847e+01 2.017054e+00 0.000000e+00
      vertex 1.095433e+01 2.129610e+00 0.000000e+00
      vertex 1.095433e+01 2.129610e+00 2.000000e+00
    endloop
  endfacet
  facet normal 9.569403e-01 2.902847e-01 -0.000000e+00
    outer loop
      vertex 1.098847e+01 2.017054e+00 0.000000e+00
      vertex 1.095433e+01 2.129610e+00 2.000000e+00
      vertex 1.098847e+01 2.017054e+00 2.000000e+00
    endloop
  endfacet
  facet normal 8.819213e-01 4.713967e-01 0.000000e+00
    outer loop
      vertex 1.095433e+01 2.129610e+00 0.000000e+00
      vertex 1.089888e+01 2.233342e+00 0.000000e+00
      vertex 1.089888e+01 2.233342e+00 2.000000e+00
    endloop
  endfacet
  facet normal 8.819213e-01 4.713967e-01 -0.000000e+00
    outer loop
      vertex 1.095433e+01 2.129610e+00 0.000000e+00
      vertex 1.089888e+01 2.233342e+00 2.000000e+00
      vertex 1.095433e+01 2.129610e+00 2.000000e+00
    endloop
  endfacet
  facet normal 7.730105e-01 6.343933e-01 0.000000e+00
    outer loop
      vertex 1.089888e+01 2.233342e+00 0.000000e+00
      vertex 1.082426e+01 2.324264e+00 0.000000e+00
      vertex 1.082426e+01 2.324264e+00 2.000000e+00
    endloop
  endfacet
  facet normal 7.730105e-01 6.343933e-01 -0.000000e+00
    outer loop
      vertex 1.089888e+01 2.233342e+00 0.000000e+00
      vertex 1.082426e+01 2.324264e+00 2.000000e+00
      vertex 1.089888e+01 2.233342e+00 2.000000e+00
    endloop
  endfacet
  facet normal 6.343933e-01 7.730105e-01 0.000000e+00
    outer loop
      vertex 1.082426e+01 2.324264e+00 0.000000e+00
      vertex 1.073334e+01 2.398882e+00 0.000000e+00
      vertex 1.073334e+01 2.398882e+00 2.000000e+00
    endloop
  endfacet
  facet normal 6.343933e-01 7.730105e-01 -0.000000e+00
    outer loop
      vertex 1.082426e+01 2.324264e+00 0.000000e+00
      vertex 1.073334e+01 2.398882e+00 2.000000e+00
      vertex 1.082426e+01 2.324264e+00 2.000000e+00
    endloop
  endfacet
  facet normal 4.713967e-01 8.819213e-01 0.000000e+00
    outer loop
      vertex 1.073334e+01 2.398882e+00 0.000000e+00
      vertex 1.062961e+01 2.454328e+00 0.000000e+00
      vertex 1.062961e+01 2.454328e+00 2.000000e+00
    endloop
  endfacet
  facet normal 4.713967e-01 8.819213e-01 -0.000000e+00
    outer loop
      vertex 1.073334e+01 2.398882e+00 0.000000e+00
      vertex 1.062961e+01 2.454328e+00 2.000000e+00
      vertex 1.073334e+01 2.398882e+00 2.000000e+00
    endloop
  endfacet
  facet normal 2.902847e-01 9.569403e-01 0.000000e+00
    outer loop
      vertex 1.062961e+01 2.454328e+00 0.000000e+00
      vertex 1.051705e+01 2.488471e+00 0.000000e+00
      vertex 1.051705e+01 2.488471e+00 2.000000e+00
    endloop
  endfacet
  facet normal 2.902847e-01 9.569403e-01 -0.000000e+00
    outer loop
      vertex 1.062961e+01 2.454328e+00 0.000000e+00
      vertex 1.051705e+01 2.488471e+00 2.000000e+00
      vertex 1.062961e+01 2.454328e+00 2.000000e+00
    endloop
  endfacet
  facet normal 9.801714e-02 9.951847e-01 0.000000e+00
    outer loop
      vertex 1.051705e+01 2.488471e+00 0.000000e+00
      vertex 1.040000e+01 2.500000e+00 0.000000e+00
      vertex 1.040000e+01 2.500000e+00 2.000000e+00
    endloop
  endfacet
  facet normal 9.801714e-02 9.951847e-01 -0.000000e+00
    outer loop
      vertex 1.051705e+01 2.488471e+00 0.000000e+00
      vertex 1.040000e+01 2.500000e+00 2.000000e+00
      vertex 1.051705e+01 2.488471e+00 2.000000e+00
    endloop
  endfacet
  facet normal 0.000000e+00 1.000000e+00 0.000000e+00
    outer loop
      vertex 1.040000e+01 2.500000e+00 0.000000e+00
      vertex -1.040000e+01 2.500000e+00 0.000000e+00
      vertex -1.040000e+01 2.500000e+00 2.000000e+00
    endloop
  endfacet
  facet normal 0.000000e+00 1.000000e+00 -0.000000e+00
    outer loop
      vertex 1.040000e+01 2.500000e+00 0.000000e+00
      vertex -1.040000e+01 2.500000e+00 2.000000e+00
      vertex 1.040000e+01 2.500000e+00 2.000000e+00
    endloop
  endfacet
  facet normal -9.801714e-02 9.951847e-01 0.000000e+00
    outer loop
      vertex -1.040000e+01 2.500000e+00 0.000000e+00
      vertex -1.051705e+01 2.488471e+00 0.000000e+00
      vertex -1.051705e+01 2.488471e+00 2.000000e+00
    endloop
  endfacet
  facet normal -9.801714e-02 9.951847e-01 0.000000e+00
    outer loop
      vertex -1.040000e+01 2.500000e+00 0.000000e+00
      vertex -1.051705e+01 2.488471e+00 2.000000e+00
      vertex -1.040000e+01 2.500000e+00 2.000000e+00
    endloop
  endfacet
  facet normal -2.902847e-01 9.569403e-01 0.000000e+00
    outer loop
      vertex -1.051705e+01 2.488471e+00 0.000000e+00
      vertex -1.062961e+01 2.454328e+00 0.000000e+00
      vertex -1.062961e+01 2.454328e+00 2.000000e+00
    endloop
  endfacet
  facet normal -2.902847e-01 9.569403e-01 0.000000e+00
    outer loop
      vertex -1.051705e+01 2.488471e+00 0.000000e+00
      vertex -1.062961e+01 2.454328e+00 2.000000e+00
      vertex -1.051705e+01 2.488471e+00 2.000000e+00
    endloop
  endfacet
  facet normal -4.713967e-01 8.819213e-01 0.000000e+00
    outer loop
      vertex -1.062961e+01 2.454328e+00 0.000000e+00
      vertex -1.073334e+01 2.398882e+00 0.000000e+00
      vertex -1.073334e+01 2.398882e+00 2.000000e+00
    endloop
  endfacet
  facet normal -4.713967e-01 8.819213e-01 0.000000e+00
    outer loop
      vertex -1.062961e+01 2.454328e+00 0.000000e+00
      vertex -1.073334e+01 2.398882e+00 2.000000e+00
      vertex -1.062961e+01 2.454328e+00 2.000000e+00
    endloop
  endfacet
  facet normal -6.343933e-01 7.730105e-01 0.000000e+00
    outer loop
      vertex -1.073334e+01 2.398882e+00 0.000000e+00
      vertex -1.082426e+01 2.324264e+00 0.000000e+00
      vertex -1.082426e+01 2.324264e+00 2.000000e+00
    endloop
  endfacet
  facet normal -6.343933e-01 7.730105e-01 0.000000e+00
    outer loop
      vertex -1.073334e+01 2.398882e+00 0.000000e+00
      vertex -1.082426e+01 2.324264e+00 2.000000e+00
      vertex -1.073334e+01 2.398882e+00 2.000000e+00
    endloop
  endfacet
  facet normal -7.730105e-01 6.343933e-01 0.000000e+00
    outer loop
      vertex -1.082426e+01 2.324264e+00 0.000000e+00
      vertex -1.089888e+01 2.233342e+00 0.000000e+00
      vertex -1.089888e+01 2.233342e+00 2.000000e+00
    endloop
  endfacet
  facet normal -7.730105e-01 6.343933e-01 0.000000e+00
    outer loop
      vertex -1.082426e+01 2.324264e+00 0.000000e+00
      vertex -1.089888e+01 2.233342e+00 2.000000e+00
      vertex -1.082426e+01 2.324264e+00 2.000000e+00
    endloop
  endfacet
  facet normal -8.819213e-01 4.713967e-01 0.000000e+00
    outer loop
      vertex -1.089888e+01 2.233342e+00 0.000000e+00
      vertex -1.095433e+01 2.129610e+00 0.000000e+00
      vertex -1.095433e+01 2.129610e+00 2.000000e+00
    endloop
  endfacet
  facet normal -8.819213e-01 4.713967e-01 0.000000e+00
    outer loop
      vertex -1.089888e+01 2.233342e+00 0.000000e+00
      vertex -1.095433e+01 2.129610e+00 2.000000e+00
      vertex -1.089888e+01 2.233342e+00 2.000000e+00
    endloop
  endfacet
  facet normal -9.569403e-01 2.902847e-01 0.000000e+00
    outer loop
      vertex -1.095433e+01 2.129610e+00 0.000000e+00
      vertex -1.098847e+01 2.017054e+00 0.000000e+00
      vertex -1.098847e+01 2.017054e+00 2.000000e+00
    endloop
  endfacet
  facet normal -9.569403e-01 2.902847e-01 0.000000e+00
    outer loop
      vertex -1.095433e+01 2.129610e+00 0.000000e+00
      vertex -1.098847e+01 2.017054e+00 2.000000e+00
      vertex -1.095433e+01 2.129610e+00 2.000000e+00
    endloop
  endfacet
  facet normal -9.951847e-01 9.801714e-02 0.000000e+00
    outer loop
      vertex -1.098847e+01 2.017054e+00 0.000000e+00
      vertex -1.100000e+01 1.900000e+00 0.000000e+00
      vertex -1.100000e+01 1.900000e+00 2.000000e+00
    endloop
  endfacet
  facet normal -9.951847e-01 9.801714e-02 0.000000e+00
    outer loop
      vertex -1.098847e+01 2.017054e+00 0.000000e+00
      vertex -1.100000e+01 1.900000e+00 2.000000e+00
      vertex -1.098847e+01 2.017054e+00 2.000000e+00
    endloop
  endfacet
  facet normal -1.000000e+00 0.000000e+00 0.000000e+00
    outer loop
      vertex -1.100000e+01 1.900000e+00 0.000000e+00
      vertex -1.100000e+01 -1.900000e+00 0.000000e+00
      vertex -1.100000e+01 -1.900000e+00 2.000000e+00
    endloop
  endfacet
  facet normal -1.000000e+00 0.000000e+00 0.000000e+00
    outer loop
      vertex -1.100000e+01 1.900000e+00 0.000000e+00
      vertex -1.100000e+01 -1.900000e+00 2.000000e+00
      vertex -1.100000e+01 1.900000e+00 2.000000e+00
    endloop
  endfacet
  facet normal -9.951847e-01 -9.801714e-02 0.000000e+00
    outer loop
      vertex -1.100000e+01 -1.900000e+00 0.000000e+00
      vertex -1.098847e+01 -2.017054e+00 0.000000e+00
      vertex -1.098847e+01 -2.017054e+00 2.000000e+00
    endloop
  endfacet
  facet normal -9.951847e-01 -9.801714e-02 0.000000e+00
    outer loop
      vertex -1.100000e+01 -1.900000e+00 0.000000e+00
      vertex -1.098847e+01 -2.017054e+00 2.000000e+00
      vertex -1.100000e+01 -1.900000e+00 2.000000e+00
    endloop
  endfacet
  facet normal -9.569403e-01 -2.902847e-01 0.000000e+00
    outer loop
      vertex -1.098847e+01 -2.017054e+00 0.000000e+00
      vertex -1.095433e+01 -2.129610e+00 0.000000e+00
      vertex -1.095433e+01 -2.129610e+00 2.000000e+00
    endloop
  endfacet
  facet normal -9.569403e-01 -2.902847e-01 0.000000e+00
    outer loop
      vertex -1.098847e+01 -2.017054e+00 0.000000e+00
      vertex -1.095433e+01 -2.129610e+00 2.000000e+00
      vertex -1.098847e+01 -2.017054e+00 2.000000e+00
    endloop
  endfacet
  facet normal -8.819213e-01 -4.713967e-01 0.000000e+00
    outer loop
      vertex -1.095433e+01 -2.129610e+00 0.000000e+00
      vertex -1.089888e+01 -2.233342e+00 0.000000e+00
      vertex -1.089888e+01 -2.233342e+00 2.000000e+00
    endloop
  endfacet
  facet normal -8.819213e-01 -4.713967e-01 0.000000e+00
    outer loop
      vertex -1.095433e+01 -2.129610e+00 0.000000e+00
      vertex -1.089888e+01 -2.233342e+00 2.000000e+00
      vertex -1.095433e+01 -2.129610e+00 2.000000e+00
    endloop
  endfacet
  facet normal -7.730105e-01 -6.343933e-01 0.000000e+00
    outer loop
      vertex -1.089888e+01 -2.233342e+00 0.000000e+00
      vertex -1.082426e+01 -2.324264e+00 0.000000e+00
      vertex -1.082426e+01 -2.324264e+00 2.000000e+00
    endloop
  endfacet
  facet normal -7.730105e-01 -6.343933e-01 0.000000e+00
    outer loop
      vertex -1.089888e+01 -2.233342e+00 0.000000e+00
      vertex -1.082426e+01 -2.324264e+00 2.000000e+00
      vertex -1.089888e+01 -2.233342e+00 2.000000e+00
    endloop
  endfacet
  facet normal -6.343933e-01 -7.730105e-01 0.000000e+00
    outer loop
      vertex -1.082426e+01 -2.324264e+00 0.000000e+00
      vertex -1.073334e+01 -2.398882e+00 0.000000e+00
      vertex -1.073334e+01 -2.398882e+00 2.000000e+00
    endloop
  endfacet
  facet normal -6.343933e-01 -7.730105e-01 0.000000e+00
    outer loop
      vertex -1.082426e+01 -2.324264e+00 0.000000e+00
      vertex -1.073334e+01 -2.398882e+00 2.000000e+00
      vertex -1.082426e+01 -2.324264e+00 2.000000e+00
    endloop
  endfacet
  facet normal -4.713967e-01 -8.819213e-01 0.000000e+00
    outer loop
      vertex -1.073334e+01 -2.398882e+00 0.000000e+00
      vertex -1.062961e+01 -2.454328e+00 0.000000e+00
      vertex -1.062961e+01 -2.454328e+00 2.000000e+00
    endloop
  endfacet
  facet normal -4.713967e-01 -8.819213e-01 0.000000e+00
    outer loop
      vertex -1.073334e+01 -2.398882e+00 0.000000e+00
      vertex -1.062961e+01 -2.454328e+00 2.000000e+00
      vertex -1.073334e+01 -2.398882e+00 2.000000e+00
    endloop
  endfacet
  facet normal -2.902847e-01 -9.569403e-01 0.000000e+00
    outer loop
      vertex -1.062961e+01 -2.454328e+00 0.000000e+00
      vertex -1.051705e+01 -2.488471e+00 0.000000e+00
      vertex -1.051705e+01 -2.488471e+00 2.000000e+00
    endloop
  endfacet
  facet normal -2.902847e-01 -9.569403e-01 0.000000e+00
    outer loop
      vertex -1.062961e+01 -2.454328e+00 0.000000e+00
      vertex -1.051705e+01 -2.488471e+00 2.000000e+00
      vertex -1.062961e+01 -2.454328e+00 2.000000e+00
    endloop
  endfacet
  facet normal -9.801714e-02 -9.951847e-01 0.000000e+00
    outer loop
      vertex -1.051705e+01 -2.488471e+00 0.000000e+00
      vertex -1.040000e+01 -2.500000e+00 0.000000e+00
      vertex -1.040000e+01 -2.500000e+00 2.000000e+00
    endloop
  endfacet
  facet normal -9.801714e-02 -9.951847e-01 0.000000e+00
    outer loop
      vertex -1.051705e+01 -2.488471e+00 0.000000e+00
      vertex -1.040000e+01 -2.500000e+00 2.000000e+00
      vertex -1.051705e+01 -2.488471e+00 2.000000e+00
    endloop
  endfacet
  facet normal 0.000000e+00 -1.000000e+00 0.000000e+00
    outer loop
      vertex -1.040000e+01 -2.500000e+00 0.000000e+00
      vertex 1.040000e+01 -2.500000e+00 0.000000e+00
      vertex 1.040000e+01 -2.500000e+00 2.000000e+00
    endloop
  endfacet
  facet normal 0.000000e+00 -1.000000e+00 0.000000e+00
    outer loop
      vertex -1.040000e+01 -2.500000e+00 0.000000e+00
      vertex 1.040000e+01 -2.500000e+00 2.000000e+00
      vertex -1.040000e+01 -2.500000e+00 2.000000e+00
    endloop
  endfacet
  facet normal 9.801714e-02 -9.951847e-01 0.000000e+00
    outer loop
      vertex 1.040000e+01 -2.500000e+00 0.000000e+00
      vertex 1.051705e+01 -2.488471e+00 0.000000e+00
      vertex 1.051705e+01 -2.488471e+00 2.000000e+00
    endloop
  endfacet
  facet normal 9.801714e-02 -9.951847e-01 0.000000e+00
    outer loop
      vertex 1.040000e+01 -2.500000e+00 0.000000e+00
      vertex 1.051705e+01 -2.488471e+00 2.000000e+00
      vertex 1.040000e+01 -2.500000e+00 2.000000e+00
    endloop
  endfacet
  facet normal 2.902847e-01 -9.569403e-01 0.000000e+00
    outer loop
      vertex 1.051705e+01 -2.488471e+00 0.000000e+00
      vertex 1.062961e+01 -2.454328e+00 0.000000e+00
      vertex 1.062961e+01 -2.454328e+00 2.000000e+00
    endloop
  endfacet
  facet normal 2.902847e-01 -9.569403e-01 0.000000e+00
    outer loop
      vertex 1.051705e+01 -2.488471e+00 0.000000e+00
      vertex 1.062961e+01 -2.454328e+00 2.000000e+00
      vertex 1.051705e+01 -2.488471e+00 2.000000e+00
    endloop
  endfacet
  facet normal 4.713967e-01 -8.819213e-01 0.000000e+00
    outer loop
      vertex 1.062961e+01 -2.454328e+00 0.000000e+00
      vertex 1.073334e+01 -2.398882e+00 0.000000e+00
      vertex 1.073334e+01 -2.398882e+00 2.000000e+00
    endloop
  endfacet
  facet normal 4.713967e-01 -8.819213e-01 0.000000e+00
    outer loop
      vertex 1.062961e+01 -2.454328e+00 0.000000e+00
      vertex 1.073334e+01 -2.398882e+00 2.000000e+00
      vertex 1.062961e+01 -2.454328e+00 2.000000e+00
    endloop
  endfacet
  facet normal 6.343933e-01 -7.730105e-01 0.000000e+00
    outer loop
      vertex 1.073334e+01 -2.398882e+00 0.000000e+00
      vertex 1.082426e+01 -2.324264e+00 0.000000e+00
      vertex 1.082426e+01 -2.324264e+00 2.000000e+00
    endloop
  endfacet
  facet normal 6.343933e-01 -7.730105e-01 0.000000e+00
    outer loop
      vertex 1.073334e+01 -2.398882e+00 0.000000e+00
      vertex 1.082426e+01 -2.324264e+00 2.000000e+00
      vertex 1.073334e+01 -2.398882e+00 2.000000e+00
    endloop
  endfacet
  facet normal 7.730105e-01 -6.343933e-01 0.000000e+00
    outer loop
      vertex 1.082426e+01 -2.324264e+00 0.000000e+00
      vertex 1.089888e+01 -2.233342e+00 0.000000e+00
      vertex 1.089888e+01 -2.233342e+00 2.000000e+00
    endloop
  endfacet
  facet normal 7.730105e-01 -6.343933e-01 0.000000e+00
    outer loop
      vertex 1.082426e+01 -2.324264e+00 0.000000e+00
      vertex 1.089888e+01 -2.233342e+00 2.000000e+00
      vertex 1.082426e+01 -2.324264e+00 2.000000e+00
    endloop
  endfacet
  facet normal 8.819213e-01 -4.713967e-01 0.000000e+00
    outer loop
      vertex 1.089888e+01 -2.233342e+00 0.000000e+00
      vertex 1.095433e+01 -2.129610e+00 0.000000e+00
      vertex 1.095433e+01 -2.129610e+00 2.000000e+00
    endloop
  endfacet
  facet normal 8.819213e-01 -4.713967e-01 0.000000e+00
    outer loop
      vertex 1.089888e+01 -2.233342e+00 0.000000e+00
      vertex 1.095433e+01 -2.129610e+00 2.000000e+00
      vertex 1.089888e+01 -2.233342e+00 2.000000e+00
    endloop
  endfacet
  facet normal 9.569403e-01 -2.902847e-01 0.000000e+00
    outer loop
      vertex 1.095433e+01 -2.129610e+00 0.000000e+00
      vertex 1.098847e+01 -2.017054e+00 0.000000e+00
      vertex 1.098847e+01 -2.017054e+00 2.000000e+00
    endloop
  endfacet
  facet normal 9.569403e-01 -2.902847e-01 0.000000e+00
    outer loop
      vertex 1.095433e+01 -2.129610e+00 0.000000e+00
      vertex 1.098847e+01 -2.017054e+00 2.000000e+00
      vertex 1.095433e+01 -2.129610e+00 2.000000e+00
    endloop
  endfacet
  facet normal 9.951847e-01 -9.801714e-02 0.000000e+00
    outer loop
      vertex 1.098847e+01 -2.017054e+00 0.000000e+00
      vertex 1.100000e+01 -1.900000e+00 0.000000e+00
      vertex 1.100000e+01 -1.900000e+00 2.000000e+00
    endloop
  endfacet
  facet normal 9.951847e-01 -9.801714e-02 0.000000e+00
    outer loop
      vertex 1.098847e+01 -2.017054e+00 0.000000e+00
      vertex 1.100000e+01 -1.900000e+00 2.000000e+00
      vertex 1.098847e+01 -2.017054e+00 2.000000e+00
    endloop
  endfacet
  facet normal 1.000000e+00 0.000000e+00 0.000000e+00
    outer loop
      vertex 1.100000e+01 -1.900000e+00 0.000000e+00
      vertex 1.100000e+01 1.900000e+00 0.000000e+00
      vertex 1.100000e+01 1.900000e+00 2.000000e+00
    endloop
  endfacet
  facet normal 1.000000e+00 0.000000e+00 0.000000e+00
    outer loop
      vertex 1.100000e+01 -1.900000e+00 0.000000e+00
      vertex 1.100000e+01 1.900000e+00 2.000000e+00
      vertex 1.100000e+01 -1.900000e+00 2.000000e+00
    endloop
  endfacet
endsolid dualshock3_pressure_pad_22x5x2mm_rounded
